<?xml version="1.0" encoding="UTF-8"?>
<svg id="Ebene_2" data-name="Ebene 2" xmlns="http://www.w3.org/2000/svg" viewBox="0 0 1140.37 761.62">
  <defs>
    <style>
      .cls-1 {
        fill: none;
        fill-rule: evenodd;
        stroke-width: 0px;
      }
    </style>
  </defs>
  <g id="FMI">
    <polygon id="FMIPath" class="cls-1" points="95.25 379.12 94.5 375 82.87 373.5 82.5 379.12 29.25 379.87 30.38 559.87 196.87 561 196.87 565.5 209.25 563.62 209.62 560.25 241.12 559.87 241.87 406.5 274.5 409.87 274.87 410.25 273 423 276.75 424.12 278.62 417.75 294 419.25 293.62 425.62 297 425.62 298.87 412.12 328.12 415.12 303.75 683.25 341.25 687 342.37 694.5 366 696 366.75 689.25 373.87 688.5 394.12 475.12 402 471 399.75 502.87 400.87 504 424.87 506.25 462.37 510 489.37 511.87 492.37 479.25 492.75 479.25 499.12 485.62 479.62 699.75 518.62 704.25 518.62 711.37 542.62 713.25 543 706.12 549.75 705.75 570 497.62 639 502.87 640.12 469.5 649.12 470.25 649.12 474.37 660.37 475.12 661.87 471.37 666.75 471.75 666.75 569.62 657 715.87 695.25 720.75 695.62 727.12 719.25 729.75 720.37 722.62 726.37 722.25 750 486.75 763.5 488.25 762 505.5 763.87 509.25 768 509.25 841.12 495.37 855 496.5 832.87 732.37 871.5 736.87 871.87 744.37 895.87 745.87 895.87 739.12 903.75 739.12 923.25 531 949.12 533.25 1017.75 512.25 1020.75 622.87 1010.25 750 1048.12 753.37 1048.12 760.87 1066.12 761.62 1066.5 754.87 1080 755.25 1099.5 552.75 1105.88 552.75 1107.75 525 1102.12 524.62 1106.62 465 1045.12 458.25 1047.38 435 1140.37 322.13 1126.5 284.25 967.5 319.87 922.87 319.87 922.12 319.5 923.25 298.12 920.25 297.75 918.37 307.5 891.37 305.62 891.75 295.12 888.75 295.12 885.37 319.5 844.12 319.5 844.5 281.25 849.37 280.5 849.37 279 844.12 272.62 842.62 7.87 835.12 7.5 835.12 .75 811.87 1.12 811.5 7.87 772.87 7.87 772.12 217.87 702.37 218.25 702.37 217.87 702.37 205.87 693 205.5 690.75 218.62 652.5 218.62 652.12 8.62 645.37 7.87 645 .37 621 .75 620.25 8.25 580.87 9.37 580.5 259.87 522 259.5 522.37 247.87 512.25 247.12 510 259.87 461.25 259.5 460.5 9.37 453.75 7.5 453 .75 429.37 .37 428.62 7.87 390 8.25 388.87 260.62 319.87 259.5 320.25 247.5 310.5 246.75 308.25 260.25 269.62 260.25 269.25 8.25 262.5 7.87 261.75 0 237.75 1.12 237.37 8.25 198 9.37 198 249.75 190.87 249.75 190.5 237.37 179.62 237.75 179.25 250.12 97.12 249.37 90.75 238.12 86.25 237.75 85.5 249.75 78.75 249.37 78 8.25 71.62 7.87 70.88 0 47.25 .37 46.5 7.5 7.88 8.25 7.12 258 0 258 .75 282 7.5 282.37 7.88 341.25 8.62 342.37 154.87 342.75 154.12 346.87 141.37 347.25 141.37 350.62 147.75 351.37 147.37 367.12 141.37 367.5 141 370.12 154.5 371.62 154.12 379.12 95.25 379.12 95.25 379.12"/>
  </g>
</svg>