<?xml version="1.0" encoding="UTF-8"?>
<svg id="Ebene_2" data-name="Ebene 2" xmlns="http://www.w3.org/2000/svg" viewBox="0 0 1207.5 969">
  <defs>
    <style>
      .cls-1 {
        fill: none;
        fill-rule: evenodd;
        stroke-width: 0px;
      }
    </style>
  </defs>
  <g id="Ebene_1-2" data-name="Ebene 1">
    <g>
      <path class="cls-1" d="m0,0h1207.5v969H0V0Z"/>
      <path class="cls-1" d="m116.25,472.12c-.25-1.37-.5-2.75-.75-4.12l-.75-.37c-1.6.49-3.73,1.84-4.12,1.12-1.82-1.49-3.64-3.1-6.75-2.25-.12,1.87-.25,3.75-.37,5.62-17.75.25-35.5.5-53.25.75v168.75c0,3.35-.92,9.77,1.12,11.25,43,.12,86,.25,129,.37,9.17,0,30.69-2.29,37.5.75v4.5c4.27,1.17,4.67-1.76,7.12-2.62.71-.25,3.64,1.05,5.25.75.12-1.12.25-2.25.37-3.37,10.5-.12,21-.25,31.5-.37.25-51.12.5-102.26.75-153.37,10.87,1.12,21.75,2.25,32.62,3.37l.37.37c-1.48,3.49-1.6,8.7-1.87,12.75,1.25.37,2.5.75,3.75,1.12.62-2.12,1.25-4.25,1.87-6.37,5.12.5,10.25,1,15.37,1.5-.66,2.05-.7,4.12-.37,6.37h3.37c.62-4.5,1.25-9,1.87-13.5,9.75,1,19.5,2,29.25,3-1.25,12.12-2.5,24.25-3.75,36.37-2.57-.14-3.28-.16-5.25.37l-.37.75c.28,4.65,2.59,6.1,4.87,8.62-5.12,54.37-10.25,108.76-15.37,163.12-1.37,14-2.75,28-4.12,42-.36,5.3-2.44,12.96-.37,16.87,12.5,1.25,25,2.5,37.5,3.75.58,2.68-.14,5.36,1.12,7.5,7.01.67,16.67,3.32,23.62,1.5.25-2.25.5-4.5.75-6.75,2.89.36,5.17.46,7.12-.75,6.75-71.12,13.5-142.26,20.25-213.37,3.05-1.04,5.91-4.06,7.87-4.12-.23,6.22-4.38,28.55-2.25,31.87.6,1.01.13.52,1.12,1.12,8,.75,16,1.5,24,2.25,12.5,1.25,25,2.5,37.5,3.75,8.06,1.31,19.56,3.11,27,1.87,1-10.87,2-21.75,3-32.62h.37c1.78,1.36,3.82,4.43,6.37,6.37-4.75,50.99-9.5,102.01-14.25,153-1.25,13.25-2.5,26.5-3.75,39.75-1.03,6.26-2.67,14.9-1.5,21.37,13,1.5,26,3,39,4.5v7.12c8,.62,16,1.25,24,1.87-.21-2.59-.34-4.74.37-7.12,2.16.3,5.22.83,6.75-.37,2.66-2.96.79-9.11,1.5-13.5,1.37-14.5,2.75-29,4.12-43.5,4.87-50.37,9.75-100.75,14.62-151.12,16.5,1.62,33,3.25,49.5,4.87,5.88.36,15.09,2.9,19.5.37.37-7.73,1.92-17.33,1.12-23.25.62-.5,1.25-1,1.87-1.5-.76-3.72-1.88-3.43-1.87-8.62,3,.25,6,.5,9,.75v4.12c2.66.12,5.01-1.55,6.75-1.12,1.37.34,1.68,1.7,4.5,1.87l.75-1.12c.25-.87.5-1.75.75-2.62,1.62.12,3.25.25,4.87.37,1.37,7.33.91,18.24,0,25.5-1.33,10.64,1.58,21.68,0,31.5-2.22,13.78,2.54,27.78,0,40.87-4.24.96-6.58,4.95-5.25,9.37h5.25c.63,4.04-.09,5.38-.75,9,1.38,1.2,2,1.22,2.25,3.75-1.75,16.87-3.5,33.75-5.25,50.62-2.72.63-3.91,2.52-5.62,4.12-.1,2.4,0,3.42,1.12,4.5h3.75c-1.37,15.87-2.75,31.75-4.12,47.62-.62,4.75-3.11,14.06-1.12,17.25,3.91,4.01,31.08,2.36,38.25,4.87-.25,2.22-.82,4.85.37,6.37,2.06,2.07,18.81,2.69,23.62,2.62v-.75c.37-2.12.75-4.25,1.12-6.37,1.96.34,4.59.73,6-.37,3.04-3.17,1.77-11.64,2.62-16.87,1.37-14.62,2.75-29.25,4.12-43.87,5.62-58.24,11.25-116.51,16.87-174.75,4.5.5,9,1,13.5,1.5-.65,8.69,2.55,12.22-1.5,17.25.05,2.38.32,2.91,1.87,3.75h4.12c3.05,13.19,28.82,26.67,46.5,19.12,15.27-6.51,21.59-16.01,26.62-33,4.62.37,9.25.75,13.87,1.12-5.75,58.24-11.5,116.51-17.25,174.75-1.37,14.62-2.75,29.25-4.12,43.87-.57,4.38-2.5,14.56-.75,17.25,4.46,4.43,31.17,2.49,38.62,4.5-.18,2.95-.48,5.21.37,7.5,7.68.15,16.9,3.31,24,1.5v-6.75h7.87c6.5-69.37,13-138.76,19.5-208.12,8.62.75,17.25,1.5,25.87,2.25,13.51,18.29,44.04,16.26,58.5.75,3.24-3.47,6.46-9.23,8.25-13.87,1.18-3.06.32-6,1.88-7.87.5.37,1,.75,1.5,1.12-1.88,5.31.96,10.99,0,16.87-2.94,18.01,2.73,38.74-.75,56.62-1.14,5.84,2.73,22.27-.75,25.5-1.37,1.25-2.75,2.5-4.12,3.75-1.02-2.5-3.88-3.14-7.5-3v5.62c2.5-.37,5-.75,7.5-1.12-.16,1.64-.08,1.5.38,3,3.02.66,5.07.37,6.75,2.25-2.12,22.37-4.25,44.75-6.38,67.12-1.39,8.71.4,21.18-3.75,27.37-3.01.7-5.45,4.38-4.12,7.12,1.5.25,3,.5,4.5.75-.1,8.1-3.31,18.44-.75,24.75,12.62,1.12,25.25,2.25,37.88,3.37v7.5c3.89,1.02,13.36,2.03,18,.75.12-2.25.25-4.5.38-6.75,4.51.16,9.95,1.98,13.5.37,6.5-67.49,13-135.01,19.5-202.5h6.38c.72-5.04,3.9-23.63,1.88-27v-.75c-1.87-.12-3.75-.25-5.62-.37.5-15.99,1.76-29.47,3.38-43.87.49-4.36,2.48-10.64,1.12-15.75-8.87-1.7-18.77-2.69-28.5-3.75-.15-1.51-.12-1.47-.75-2.25-.8,1-.63,1.81-1.12,2.62-10.37-1.12-20.75-2.25-31.12-3.37-.32-9.19-.18-16.11,2.25-23.25,11.56-.1,24.58-6.46,33.38-11.25,28.06-15.29,73.99-54.33,59.62-101.62-4.18-13.76-12.95-19.96-20.62-29.62,1.24-3.22,3.42-5.49,6.75-6.75v-1.5c-44.81-32.47-100.41-15.5-137.25,13.12-7.87,6.11-16.73,13.68-21.75,22.5h-44.62l-.75-.37c.03-7.64,2.55-13.94,1.12-21.37-1-.12-2-.25-3-.37l-.75.37c-.37,3.12-.75,6.25-1.12,9.37-8.47.3-17.34-3.11-27-1.87v-.75c-.56-1.94.76-6.47.37-9.75h-3l-.75.37c-.87,8.47-2.59,14.62-2.62,24h-41.25c.12-12.75.25-25.5.37-38.25,2.7.05,3.18.3,4.87-.75v-1.5c-1.27-2.63-4.31-4.33-5.25-6.37v-199.12c0-13.26,2.7-57.76-1.5-65.62-2.5-.12-5-.25-7.5-.37v-6.75c-7.75.12-15.5.25-23.25.37-.12,2.25-.25,4.5-.37,6.75h-38.62c-.25,7.37-.5,14.75-.75,22.12v187.87c-23.25.12-46.5.25-69.75.37v-.37c1.28-2.79,1.2-8.32.75-11.62l-.75-.37c-3.51,1.84-5.12.34-9.37-.37l-.75,1.12c-.5,4-1,8-1.5,12h-38.25c-.12-69.99-.25-140.01-.37-210-2.25-.25-4.5-.5-6.75-.75-.12-2.5-.25-5-.37-7.5-8,.12-16,.25-24,.37-.25,2.5-.5,5-.75,7.5-8.87-.1-33.7-2.17-39.37,1.12-.12,83.49-.25,167.01-.37,250.5-19.5-.12-39-.25-58.5-.37.12-3.87.25-7.75.37-11.62-4.72.47-6-.25-10.12-.75-.28,3.79-.83,10.2-2.25,12.75-16.25-.12-32.5-.25-48.75-.37V121.5c-.25-6.37-.5-12.75-.75-19.12-.6-1.01-.13-.52-1.12-1.12-1.87-.25-3.75-.5-5.62-.75.16-2.77.32-5.63-.75-6.75-7.87-.12-15.75-.25-23.62-.37-.25,2.5-.5,5-.75,7.5-12.87.12-25.75.25-38.62.37l-.37,1.12c-.25,83.74-.5,167.51-.75,251.25-16.37-.12-32.75-.25-49.12-.37-5.92-.54-15.66,2.24-19.87-.75.7-2.42,1.68-9.17.37-11.25v-.75c-4.53.74-5.99.12-9.75-.75l-.37.37c-.62,4.37-1.25,8.75-1.87,13.12h-38.62c-.12-83.99-.25-168.01-.37-252-2.25-.12-4.5-.25-6.75-.37-.01-3.08.38-5.78-.75-7.87-7.19-.12-18.79-1.43-24,1.12-.12,2.37-.25,4.75-.37,7.12-8.69-.24-33.64-2.65-39.37,1.12v240.37h-7.12c-.12-4.12-.25-8.25-.37-12.37-3.87.36-6.41.42-9.75-.37l-1.12.75c-.12,4.12-.25,8.25-.37,12.37-27.37-.25-54.75-.5-82.12-.75.75-10.67,2.18-11.84-6.37-11.25-2.46.17-2.27-1.37-4.5-.37-.25,4-.5,8-.75,12-2.25-.12-4.5-.25-6.75-.37v-214.12c0-8.77.83-19.46-.75-27-2.12-.12-4.25-.25-6.38-.37.09-2.95-.01-5.92-.75-7.87-7.87.12-15.75.25-23.62.37-.28,1.66.62,5.67-.75,7.12-12.87.25-25.75.5-38.62.75-.25,83.24-.5,166.51-.75,249.75h-7.12c.25,8,.5,16,.75,24,2.25.12,4.5.25,6.75.37.12,19.62.25,39.25.38,58.87l.75,1.12c48.75.12,97.5.25,146.25.37v2.25c-.25.62-.5,1.25-.75,1.87-4.25.12-8.5.25-12.75.37v3.37h.75c1.87.25,3.75.5,5.62.75.12,5.26.93,11.06-.37,15.75-2,.12-4,.25-6,.37-.12.87-.25,1.75-.37,2.62,2.88,1.95,9.57.52,13.5,1.5-.12,2.5-.25,5-.37,7.5h-58.87Z"/>
      <path class="cls-1" d="m732.37,298.87c-1.4,1.31-2.02,1.46-2.25,4.12.75.87,1.5,1.75,2.25,2.62,1.62-.45,2.99-.8,4.12-1.5l.37-.75v-2.25l-2.25-2.25h-2.25Z"/>
      <path class="cls-1" d="m768.75,298.87c-2.53,1.65-3.63,4.17-.75,6.37,2.49.04,3.17-.29,4.5-1.12l.37-.75v-2.25l-2.25-2.25h-1.87Z"/>
      <path class="cls-1" d="m696.37,299.25l-2.62,2.62c.5,1.25,1,2.5,1.5,3.75,1.25.12,2.5.25,3.75.37.5-.62,1-1.25,1.5-1.87-.05-3.22-.81-3.29-2.25-4.87h-1.87Z"/>
      <path class="cls-1" d="m919.5,382.87c-.43,3,.16,5.04,1.12,7.5h1.87l.75-1.12c1.58-1.64,2.49-4.27,1.5-6.37h-5.25Z"/>
      <path class="cls-1" d="m928.5,383.62c-.43,3,.16,5.04,1.12,7.5h1.87l.75-1.12c1.58-1.64,2.49-4.27,1.5-6.37h-5.25Z"/>
      <path class="cls-1" d="m1002.38,385.5c-1.84,1.62-2.9,2.42-2.25,5.62,1,.87,2,1.75,3,2.62,1.25-.62,2.5-1.25,3.75-1.87.25-1.12.5-2.25.75-3.37-.75-1.37-1.16-1.94-2.62-2.62-.87-.12-1.75-.25-2.62-.37Z"/>
      <path class="cls-1" d="m152.62,445.5c-.09,2.33.09,4.28.75,5.62h.37c2.25-.62,4.5-1.25,6.75-1.87-.34-3.76-3.73-4.04-7.87-3.75Z"/>
      <path class="cls-1" d="m152.62,453c-.09,2.33.09,4.28.75,5.62h.37c2.25-.62,4.5-1.25,6.75-1.87-.35-2.8-1.15-2.48-1.12-4.87h-1.87c.12.5.25,1,.37,1.5-1.75-.12-3.5-.25-5.25-.37Z"/>
      <path class="cls-1" d="m301.12,517.5c-.62,2.54-1.45,3.63-1.5,7.12h.75c1.37.12,2.75.25,4.12.37l1.12-.75c-.5-2.12-1-4.25-1.5-6.37-1-.12-2-.25-3-.37Z"/>
      <path class="cls-1" d="m308.62,518.25c-.62,2.54-1.45,3.63-1.5,7.12h.75c1.37.12,2.75.25,4.12.37l1.12-.75c-.5-2.12-1-4.25-1.5-6.37-1-.12-2-.25-3-.37Z"/>
      <path class="cls-1" d="m303,527.62c.25.5.5,1,.75,1.5h.37c.25-.5.5-1,.75-1.5h-1.87Z"/>
      <path class="cls-1" d="m675.37,568.87c-1.59,1.9-2.29,3.87-2.25,7.5,2.11.4,4.52.92,5.62-.75-.5-2.25-1-4.5-1.5-6.75h-1.87Z"/>
      <path class="cls-1" d="m859.87,603.75c-.12.75-.25,1.5-.37,2.25h1.5v-.75l.37-1.12c-.5-.12-1-.25-1.5-.37Z"/>
      <path class="cls-1" d="m673.12,663.37v4.87c1.26,1.53,5.51.4,7.5-.75-.12-.87-.25-1.75-.37-2.62-2.41-.86-3.72-1.48-7.12-1.5Z"/>
      <path class="cls-1" d="m670.12,736.12c-.61,1.91-.36,4.55.37,6,2.37-.62,4.75-1.25,7.12-1.87-.12-.87-.25-1.75-.37-2.62-2.39-.84-3.82-1.46-7.12-1.5Z"/>
    </g>
  </g>
</svg>