<?xml version="1.0" encoding="utf-8"?>
<!-- Generator: Adobe Illustrator 27.9.0, SVG Export Plug-In . SVG Version: 6.00 Build 0)  -->
<svg version="1.1" id="FMI" xmlns="http://www.w3.org/2000/svg" xmlns:xlink="http://www.w3.org/1999/xlink" x="0px" y="0px"
	 viewBox="0 0 400 250" style="enable-background:new 0 0 400 250;" xml:space="preserve">
<style type="text/css">
	.st0{fill-rule:evenodd;clip-rule:evenodd;fill:none;}
</style>
<polygon id="FMIPath" class="st0" points="67.3,129.8 67.1,128.6 63.9,128.2 63.8,129.8 48.9,130 49.2,180.2 95.7,180.5 95.7,181.8 
	99.1,181.3 99.2,180.3 108,180.2 108.2,137.4 117.3,138.4 117.4,138.5 116.9,142 118,142.3 118.5,140.6 122.8,141 122.7,142.8 
	123.6,142.8 124.1,139 132.3,139.8 125.5,214.6 136,215.7 136.3,217.8 142.9,218.2 143.1,216.3 145.1,216.1 150.7,156.6 
	152.9,155.4 152.3,164.3 152.6,164.6 159.3,165.2 169.8,166.3 177.3,166.8 178.1,157.7 178.2,157.7 180,159.5 174.6,219.2 
	185.5,220.5 185.5,222.5 192.1,223 192.3,221 194.1,220.9 199.8,162.8 219,164.3 219.4,155 221.9,155.2 221.9,156.4 225,156.6 
	225.4,155.5 226.8,155.6 226.8,182.9 224.1,223.7 234.7,225.1 234.8,226.9 241.4,227.6 241.7,225.6 243.4,225.5 250,159.8 
	253.8,160.2 253.4,165 253.9,166.1 255,166.1 275.4,162.2 279.3,162.5 273.1,228.3 283.9,229.6 284,231.7 290.7,232.1 290.7,230.2 
	292.9,230.2 298.3,172.2 305.6,172.8 324.7,166.9 325.5,197.8 322.6,233.3 333.2,234.2 333.2,236.3 338.2,236.5 338.3,234.6 
	342.1,234.7 347.5,178.2 349.3,178.2 349.8,170.5 348.3,170.4 349.5,153.7 332.3,151.9 333,145.4 358.9,113.9 355.1,103.3 
	310.7,113.2 298.2,113.2 298,113.1 298.3,107.2 297.5,107.1 297,109.8 289.5,109.3 289.6,106.3 288.7,106.3 287.8,113.1 
	276.3,113.1 276.4,102.5 277.7,102.3 277.7,101.8 276.3,100.1 275.8,26.2 273.8,26.1 273.8,24.2 267.3,24.3 267.2,26.2 256.4,26.2 
	256.2,84.8 236.7,84.9 236.7,84.8 236.7,81.4 234.1,81.3 233.5,85 222.8,85 222.7,26.4 220.8,26.2 220.7,24.1 214,24.2 213.8,26.3 
	202.8,26.6 202.7,96.5 186.4,96.4 186.5,93.2 183.7,93 183,96.5 169.4,96.4 169.2,26.6 167.4,26.1 167.1,24.2 160.5,24.1 
	160.3,26.2 149.6,26.3 149.2,96.7 130,96.4 130.1,93.1 127.4,92.8 126.8,96.6 116,96.6 115.9,26.3 114,26.2 113.8,24 107.1,24.3 
	107,26.3 96,26.6 96,93.7 94,93.7 93.9,90.2 90.9,90.3 90.8,93.8 67.8,93.6 66.1,90.4 64.8,90.3 64.6,93.7 62.7,93.6 62.5,26.3 
	60.7,26.2 60.5,24 53.9,24.1 53.7,26.1 42.9,26.3 42.7,96 40.8,96 41,102.7 42.8,102.8 42.9,119.2 43.2,119.5 84,119.6 83.8,120.8 
	80.2,120.9 80.2,121.8 82,122 81.9,126.4 80.2,126.5 80.1,127.3 83.9,127.7 83.8,129.8 67.3,129.8 "/>
</svg>
